<svg width="35" height="33" viewBox="0 0 35 33" fill="none" xmlns="http://www.w3.org/2000/svg">
<path d="M11.7072 26.5459C11.7072 26.6902 11.5541 26.7933 11.3354 26.7933C11.1167 26.7933 10.9418 26.7933 10.9418 26.5459C10.9418 26.2986 11.1167 26.2986 11.3135 26.2986C11.5103 26.2986 11.7072 26.4017 11.7072 26.5459ZM9.52041 26.2368C9.52041 26.3811 9.52041 26.5459 9.82655 26.5872C9.90486 26.6226 9.99489 26.6273 10.0769 26.6003C10.1589 26.5732 10.2261 26.5166 10.2639 26.4429C10.2639 26.2986 10.2639 26.1544 9.95776 26.0925C9.65161 26.0307 9.56414 26.0925 9.52041 26.2368ZM12.6256 26.1338C12.4288 26.1338 12.2976 26.2986 12.3194 26.4635C12.3413 26.6284 12.5162 26.6902 12.7349 26.649C12.9536 26.6078 13.0629 26.4635 13.0411 26.3192C13.0192 26.175 12.8443 26.1132 12.6256 26.1338ZM17.2834 0.00129628C14.9771 -0.0191601 12.6903 0.399703 10.5601 1.23275C8.42985 2.06579 6.50016 3.29585 4.88679 4.84911C3.27343 6.40236 2.00965 8.24679 1.17129 10.2717C0.332929 12.2966 -0.0627252 14.4603 0.00806886 16.6329C-0.0529736 20.1919 1.06695 23.68 3.21143 26.61C5.35591 29.5401 8.41784 31.7657 11.9696 32.976C12.8661 33.1203 13.1941 32.5844 13.1941 32.1516V28.0298C13.1941 28.0298 8.2521 29.0603 7.20246 25.9689C7.20246 25.9689 6.41523 23.908 5.25626 23.4752C5.25626 23.4752 3.63807 22.4035 5.36559 22.4241C5.9314 22.496 6.47145 22.6919 6.94236 22.9962C7.41327 23.3004 7.80194 23.7045 8.07716 24.1759C8.30596 24.5986 8.624 24.9727 9.01175 25.2754C9.3995 25.5781 9.84878 25.8029 10.332 25.9361C10.8153 26.0693 11.3223 26.1079 11.822 26.0498C12.3217 25.9916 12.8035 25.8379 13.2379 25.5979C13.3206 24.7375 13.7143 23.9299 14.3531 23.3103C10.417 22.8775 6.4371 22.3417 6.4371 15.7673C6.3953 15.0246 6.5219 14.2821 6.80847 13.5891C7.09503 12.8962 7.53499 12.2687 8.09902 11.7485C7.5649 10.2402 7.62703 8.6007 8.27397 7.13208C9.76095 6.67868 13.1504 8.9663 13.1504 8.9663C16.046 8.19662 19.1111 8.19662 22.0067 8.9663C22.0067 8.9663 25.3962 6.67868 26.8832 7.13208C27.5421 8.59821 27.6044 10.2418 27.0581 11.7485C27.6431 12.2607 28.1071 12.8833 28.4198 13.5757C28.7325 14.2682 28.887 15.0149 28.8731 15.7673C28.8731 22.3623 24.7183 22.8775 20.7821 23.3103C21.1778 23.7285 21.4787 24.2183 21.6667 24.7498C21.8547 25.2814 21.9258 25.8434 21.8755 26.4017V32.1104C21.8741 32.2496 21.9083 32.3871 21.9753 32.5111C22.0422 32.6352 22.1399 32.7422 22.2601 32.8231C22.3803 32.904 22.5194 32.9564 22.6656 32.9758C22.8118 32.9953 22.9609 32.9812 23.1001 32.9348C26.6453 31.7349 29.701 29.5157 31.8355 26.5906C33.97 23.6655 35.0756 20.1823 34.996 16.6329C35.0165 14.4382 34.5719 12.2617 33.6883 10.2311C32.8046 8.20042 31.4996 6.3565 29.8498 4.80743C28.2001 3.25835 26.2387 2.03531 24.0809 1.21001C21.923 0.384712 19.612 -0.0262242 17.2834 0.00129628ZM6.87445 23.5164V23.8668C6.89883 23.8898 6.9278 23.9081 6.95969 23.9206C6.99159 23.9331 7.02578 23.9395 7.06032 23.9395C7.09486 23.9395 7.12905 23.9331 7.16095 23.9206C7.19285 23.9081 7.22182 23.8898 7.24619 23.8668C7.24619 23.8668 7.24619 23.64 7.24619 23.4958C7.24619 23.3515 6.96192 23.434 6.87445 23.5164ZM6.10909 22.9599C6.10909 22.9599 6.10909 23.166 6.26216 23.2279C6.28061 23.2494 6.30393 23.2667 6.33042 23.2787C6.3569 23.2906 6.38588 23.2968 6.41523 23.2968C6.44458 23.2968 6.47356 23.2906 6.50005 23.2787C6.52653 23.2667 6.54986 23.2494 6.5683 23.2279C6.5683 23.2279 6.5683 23.0218 6.41523 22.9599C6.26216 22.8981 6.15282 22.8981 6.10909 22.9599ZM8.29583 25.3918V25.8246C8.29583 25.9689 8.66758 25.9895 8.75505 25.8246C8.84252 25.6598 8.75505 25.5361 8.75505 25.3918C8.75505 25.2476 8.47077 25.2888 8.3833 25.3918H8.29583ZM7.48674 24.382V24.7942C7.48674 24.959 7.79288 25.0209 7.90222 24.959C7.9576 24.899 7.9881 24.8222 7.9881 24.7426C7.9881 24.6631 7.9576 24.5863 7.90222 24.5262C7.79288 24.3614 7.61794 24.2995 7.48674 24.382Z" fill="#D6E2FF"/>
</svg>
