<svg width="27" height="31" viewBox="0 0 27 31" fill="none" xmlns="http://www.w3.org/2000/svg">
<path d="M15.3231 0.50298C15.1004 0.510369 14.8814 0.561739 14.6787 0.654131C14.476 0.746522 14.2936 0.878109 14.1419 1.04131L7.4976 8.15516L2.76076 13.2263C2.07089 13.9609 1.56207 14.8463 1.27482 15.8123C1.21326 16.0198 1.16199 16.2302 1.12119 16.4428C0.937026 17.4046 0.963021 18.395 1.19739 19.3458C1.30156 19.7748 1.44515 20.1932 1.62633 20.5958C2.00207 21.4321 2.53203 22.1902 3.18848 22.8302L8.44521 27.9837L8.49314 28.0304C11.2561 30.6914 15.6857 30.652 18.4031 27.9395L21.348 24.9996C22.0117 24.3359 22.0117 23.2616 21.3517 22.5967C21.1946 22.4388 21.0079 22.3134 20.8023 22.2277C20.5967 22.1421 20.3762 22.0978 20.1535 22.0975C19.9307 22.0971 19.7101 22.1407 19.5042 22.2257C19.2984 22.3108 19.1113 22.4356 18.9537 22.593L16.0089 25.533C15.3223 26.2106 14.3989 26.5944 13.4342 26.6032C12.4696 26.6119 11.5394 26.2448 10.8407 25.5797L10.8161 25.5563L5.56058 20.4028C4.75923 19.6162 4.36593 18.5973 4.39542 17.6215C4.40127 17.405 4.42845 17.1897 4.47654 16.9786C4.60008 16.4432 4.86248 15.9498 5.23734 15.548L9.97294 10.4756C11.2733 9.08188 13.9109 8.91473 15.4177 10.134L19.7207 13.6135C20.4495 14.2034 21.5164 14.0891 22.1051 13.359C22.3873 13.0083 22.519 12.5601 22.4713 12.1124C22.4236 11.6648 22.2004 11.2543 21.8507 10.971L17.5489 7.49147C16.5657 6.69626 15.3784 6.20709 14.1395 6.01412L16.6161 3.36179C16.8443 3.11633 16.995 2.80888 17.0492 2.47806C17.1033 2.14724 17.0585 1.8078 16.9203 1.50237C16.7822 1.19694 16.5569 0.939133 16.2727 0.761327C15.9885 0.58352 15.6582 0.493642 15.3231 0.50298ZM11.8006 16.2535C11.5776 16.2535 11.3569 16.2974 11.1509 16.3828C10.945 16.4682 10.7579 16.5934 10.6004 16.7511C10.4428 16.9089 10.3179 17.0962 10.2329 17.3022C10.1478 17.5083 10.1041 17.7291 10.1045 17.9521C10.1041 18.175 10.1478 18.3958 10.2329 18.6019C10.3179 18.808 10.4428 18.9952 10.6004 19.153C10.7579 19.3108 10.945 19.4359 11.1509 19.5213C11.3569 19.6067 11.5776 19.6506 11.8006 19.6506H24.3039C24.5268 19.6506 24.7476 19.6067 24.9535 19.5213C25.1595 19.4359 25.3466 19.3108 25.5041 19.153C25.6616 18.9952 25.7865 18.808 25.8716 18.6019C25.9567 18.3958 26.0003 18.175 26 17.9521C26.0003 17.7291 25.9567 17.5083 25.8716 17.3022C25.7865 17.0962 25.6616 16.9089 25.5041 16.7511C25.3466 16.5934 25.1595 16.4682 24.9535 16.3828C24.7476 16.2974 24.5268 16.2535 24.3039 16.2535H11.8006Z" fill="#D6E2FF" stroke="#D6E2FF"/>
</svg>
