<svg width="32" height="32" viewBox="0 0 32 32" fill="none" xmlns="http://www.w3.org/2000/svg">
<path d="M27.263 24.9002C27.2628 26.2087 26.202 27.2693 24.8935 27.2693V27.2693C23.5848 27.2693 22.5239 26.2085 22.5239 24.8998V19.8439C22.5239 18.0732 22.488 15.7947 20.0546 15.7947C17.584 15.7947 17.2066 17.7214 17.2066 19.7132V24.9C17.2066 26.2085 16.1458 27.2693 14.8373 27.2693V27.2693C13.5287 27.2693 12.4679 26.2085 12.4679 24.9V14.276C12.4679 13.019 13.4869 12 14.7439 12H15.9793C16.554 12 17.0199 12.4659 17.0199 13.0406V14.043C17.0199 14.0641 17.0371 14.0812 17.0582 14.0812V14.0812C17.0724 14.0812 17.0853 14.0736 17.092 14.0611C17.7347 12.8671 19.2769 11.6147 21.5746 11.6147C26.376 11.6147 27.264 14.7748 27.264 18.888L27.263 24.9002ZM7.11599 9.91067C5.59066 9.91067 4.36533 8.676 4.36533 7.15733C4.36533 5.64 5.59199 4.40667 7.11599 4.40667C8.63599 4.40667 9.86799 5.64 9.86799 7.15733C9.86799 8.676 8.63466 9.91067 7.11599 9.91067ZM9.49199 24.8933C9.49199 26.2056 8.42822 27.2693 7.11599 27.2693V27.2693C5.80377 27.2693 4.74 26.2056 4.74 24.8933V14.376C4.74 13.0638 5.80377 12 7.11599 12V12C8.42822 12 9.49199 13.0638 9.49199 14.376V24.8933ZM29.6332 0H2.36133C1.056 0 0 1.032 0 2.30533V29.6948C0 30.9692 1.056 32 2.36133 32H29.6293C30.9333 32 32 30.9692 32 29.6948V2.30533C32 1.032 30.9333 0 29.6293 0H29.6332Z" fill="#D6E2FF"/>
</svg>
