<svg width="17" height="21" viewBox="0 0 17 21" fill="none" xmlns="http://www.w3.org/2000/svg">
<path fill-rule="evenodd" clip-rule="evenodd" d="M3.77778 1.64348V2.73913H2.26667C1.969 2.73913 1.67426 2.79581 1.39925 2.90593C1.12425 3.01606 0.874371 3.17747 0.663891 3.38095C0.453412 3.58443 0.28645 3.826 0.17254 4.09186C0.0586291 4.35772 0 4.64267 0 4.93043V18.8087C0 19.3899 0.238809 19.9472 0.663891 20.3582C0.874371 20.5617 1.12425 20.7231 1.39925 20.8332C1.67426 20.9433 1.969 21 2.26667 21H14.7333C15.3345 21 15.911 20.7691 16.3361 20.3582C16.7612 19.9472 17 19.3899 17 18.8087V4.93043C17 4.34926 16.7612 3.7919 16.3361 3.38095C15.911 2.97 15.3345 2.73913 14.7333 2.73913H13.2222V1.64348C13.2222 1.2076 13.0431 0.789576 12.7243 0.481364C12.4055 0.173152 11.9731 0 11.5222 0L5.47778 0C5.02691 0 4.59451 0.173152 4.2757 0.481364C3.95688 0.789576 3.77778 1.2076 3.77778 1.64348ZM11.3333 1.82609H5.66667V3.65217H11.3333V1.82609ZM2.83333 9.13043C2.83333 8.88828 2.93284 8.65604 3.10995 8.48482C3.28707 8.31359 3.5273 8.21739 3.77778 8.21739H13.2222C13.4727 8.21739 13.7129 8.31359 13.89 8.48482C14.0672 8.65604 14.1667 8.88828 14.1667 9.13043C14.1667 9.37259 14.0672 9.60483 13.89 9.77605C13.7129 9.94728 13.4727 10.0435 13.2222 10.0435H3.77778C3.5273 10.0435 3.28707 9.94728 3.10995 9.77605C2.93284 9.60483 2.83333 9.37259 2.83333 9.13043ZM2.83333 11.8696C2.83333 11.6274 2.93284 11.3952 3.10995 11.2239C3.28707 11.0527 3.5273 10.9565 3.77778 10.9565H13.2222C13.4727 10.9565 13.7129 11.0527 13.89 11.2239C14.0672 11.3952 14.1667 11.6274 14.1667 11.8696C14.1667 12.1117 14.0672 12.344 13.89 12.5152C13.7129 12.6864 13.4727 12.7826 13.2222 12.7826H3.77778C3.5273 12.7826 3.28707 12.6864 3.10995 12.5152C2.93284 12.344 2.83333 12.1117 2.83333 11.8696ZM2.83333 14.6087C2.83333 14.3665 2.93284 14.1343 3.10995 13.9631C3.28707 13.7918 3.5273 13.6957 3.77778 13.6957H9.44444C9.69493 13.6957 9.93515 13.7918 10.1123 13.9631C10.2894 14.1343 10.3889 14.3665 10.3889 14.6087C10.3889 14.8509 10.2894 15.0831 10.1123 15.2543C9.93515 15.4255 9.69493 15.5217 9.44444 15.5217H3.77778C3.5273 15.5217 3.28707 15.4255 3.10995 15.2543C2.93284 15.0831 2.83333 14.8509 2.83333 14.6087Z" fill="#3A2773"/>
</svg>
