<?xml version="1.0" ?>
<!DOCTYPE svg PUBLIC '-//W3C//DTD SVG 1.1//EN' 'http://www.w3.org/Graphics/SVG/1.1/DTD/svg11.dtd'>
<svg enable-background="new 0 0 24 24" height="24px" id="Layer_1" version="1.1" viewBox="0 0 24 24" width="24px" xml:space="preserve" xmlns="http://www.w3.org/2000/svg" xmlns:xlink="http://www.w3.org/1999/xlink">
  <g>
    <path fill="#FFFFFF" d="M12,0.958c6.088,0,11.042,4.953,11.042,11.042S18.089,23.042,12,23.042S0.958,18.089,0.958,12S5.912,0.958,12,0.958 M12-0.042C5.349-0.042-0.042,5.349-0.042,12c0,6.648,5.391,12.042,12.042,12.042c6.65,0,12.042-5.394,12.042-12.042 C24.041,5.349,18.65-0.042,12-0.042L12-0.042z"/>
    <path fill="#FFFFFF" d="M8.053,23.145c-0.047,0-0.096-0.009-0.144-0.021c-0.265-0.079-0.415-0.355-0.335-0.622l1.891-6.304 c-0.52-0.916-0.806-2.151-0.806-3.481c0-1.794,0.539-3.725,1.721-3.725c0.635,0,0.986,0.31,1.168,0.568 c0.734,1.043,0.029,3.155-0.12,3.568l-0.871,2.905c0.417,0.565,1.032,0.987,1.935,0.987c2.531,0,5.486-1.44,5.486-5.5 c0-3.246-1.887-6.531-5.489-6.531c-2.625,0-6.531,1.473-6.531,5.531c0,1.755,0.607,3.04,1.667,3.523 c0.251,0.114,0.361,0.411,0.246,0.662c-0.114,0.251-0.408,0.364-0.663,0.246c-1.43-0.652-2.25-2.271-2.25-4.434 c0-4.792,4.504-6.531,7.531-6.531c4.261,0,6.489,3.789,6.489,7.531c0,4.488-3.258,6.5-6.486,6.5c-0.889,0-1.658-0.293-2.273-0.859 l-1.687,5.626C8.467,23.003,8.268,23.145,8.053,23.145z M10.38,9.989c-0.276,0.046-0.854,1.443-0.694,3.381 c0.023,0.28,0.083,0.771,0.236,1.304l0.558-1.857c0.305-0.853,0.576-2.221,0.25-2.683C10.68,10.062,10.599,9.989,10.38,9.989z"/>
  </g>
</svg>
